# Blender v2.79 (sub 0) OBJ File: ''
# www.blender.org
mtllib chest.mtl
o treasure_chest
v -2.830511 4.214736 0.915540
v -3.515299 3.861246 1.493780
v -2.830511 3.861246 1.493780
v -2.830511 3.229477 1.849302
v -3.515299 0.078519 1.852398
v -2.830511 0.078519 1.852398
v 2.830511 3.229477 -1.849301
v 3.515299 0.078519 -1.852398
v 2.830511 0.078519 -1.852398
v 2.830511 4.214736 -0.915540
v 3.515299 4.372878 -0.297784
v 3.515299 4.214736 -0.915540
v 2.830511 4.372878 0.297785
v 3.515299 4.214736 0.915540
v 3.515299 4.372878 0.297785
v 2.830511 3.861246 -1.493783
v 3.515299 3.861246 -1.493783
v -3.515299 3.229477 1.849302
v 3.515299 3.229477 -1.849301
v 2.830511 4.372878 -0.297784
v 2.830511 3.861246 1.493780
v 3.515299 3.861246 1.493780
v 3.515299 3.229477 1.849302
v 2.830511 0.078519 1.852398
v 3.515299 0.078519 1.852398
v -3.515299 3.229477 -1.849301
v -2.830511 0.078519 -1.852398
v -3.515299 0.078519 -1.852398
v -3.515299 4.372878 -0.297784
v -2.830511 4.214736 -0.915540
v -3.515299 4.214736 -0.915540
v -3.515299 4.214736 0.915540
v -2.830511 4.372878 0.297785
v -3.515299 4.372878 0.297785
v -2.830511 3.861246 -1.493783
v -3.515299 3.861246 -1.493783
v 2.830511 3.229477 1.849302
v -2.830511 3.229477 -1.849301
v -2.830511 4.372878 -0.297784
v -1.414689 4.127388 0.878824
v -2.830511 3.795365 1.425687
v -1.414689 3.795365 1.425687
v -1.414689 3.205462 1.757652
v -2.830511 0.078519 1.757651
v -1.414689 0.078519 1.757651
v 1.414689 3.205462 -1.757651
v 2.830511 0.078519 -1.757651
v 1.414689 0.078519 -1.757651
v 1.414689 4.278870 -0.285963
v 2.830511 4.127388 -0.878824
v 1.414689 4.127388 -0.878824
v 1.414689 4.127388 0.878824
v 2.830511 4.278870 0.285964
v 1.414689 4.278870 0.285964
v 2.830511 3.795365 -1.425687
v 1.414689 3.795365 -1.425687
v -2.830511 3.205462 1.757652
v 2.830511 3.205462 -1.757651
v 2.830511 4.278870 -0.285963
v 2.830511 4.127388 0.878824
v 1.414689 3.795365 1.425687
v 2.830511 3.795365 1.425687
v 2.830511 3.205462 1.757652
v 1.414689 0.078519 1.757651
v 2.830511 0.078519 1.757651
v -2.830511 3.205462 -1.757651
v -1.414689 0.078519 -1.757651
v -2.830511 0.078519 -1.757651
v -2.830511 4.278870 -0.285963
v -1.414689 4.127388 -0.878824
v -2.830511 4.127388 -0.878824
v -2.830511 4.127388 0.878824
v -1.414689 4.278870 0.285964
v -2.830511 4.278870 0.285964
v -1.414689 3.795365 -1.425687
v -2.830511 3.795365 -1.425687
v 1.414689 3.205462 1.757652
v -1.414689 3.205462 -1.757651
v -1.414689 4.278870 -0.285963
v 0.962941 3.795365 1.425687
v -0.962941 4.127388 0.878824
v -0.962941 3.795365 1.425687
v 0.962941 0.078519 1.757651
v -0.962941 3.205462 1.757652
v -0.962941 0.078519 1.757651
v -0.962941 0.078519 -1.757651
v 0.962941 3.205462 -1.757651
v 0.962941 0.078519 -1.757651
v -0.962941 4.127388 -0.878824
v 0.962941 4.278870 -0.285963
v 0.962941 4.127388 -0.878824
v -0.962941 4.278870 0.285964
v 0.962941 4.127388 0.878824
v 0.962941 4.278870 0.285964
v -0.962941 3.795365 -1.425687
v 0.962941 3.795365 -1.425687
v 0.962941 3.205462 1.757652
v -0.962941 3.205462 -1.757651
v -0.962941 4.278870 -0.285963
v -0.962941 3.824011 1.455294
v -1.414689 4.165365 0.894786
v -1.414689 3.824011 1.455294
v -0.962941 0.078519 1.798845
v -1.414689 3.215901 1.797500
v -1.414689 0.078519 1.798845
v 0.962941 0.078519 -1.798845
v 1.414689 3.215901 -1.797500
v 1.414689 0.078519 -1.798845
v 0.962941 4.165365 -0.894786
v 1.414689 4.319742 -0.291103
v 1.414689 4.165365 -0.894786
v 0.962941 4.319742 0.291103
v 1.414689 4.165365 0.894786
v 1.414689 4.319742 0.291103
v 0.962941 3.824011 -1.455294
v 1.414689 3.824011 -1.455294
v -0.962941 3.215901 1.797500
v 0.962941 3.215901 -1.797500
v 0.962941 4.319742 -0.291103
v 1.414689 3.824011 1.455294
v 0.962941 4.165365 0.894786
v 0.962941 3.824011 1.455294
v 1.414689 0.078519 1.798845
v 0.962941 3.215901 1.797500
v 0.962941 0.078519 1.798845
v -1.414689 0.078519 -1.798845
v -0.962941 3.215901 -1.797500
v -0.962941 0.078519 -1.798845
v -1.414689 4.165365 -0.894786
v -0.962941 4.319742 -0.291103
v -0.962941 4.165365 -0.894786
v -1.414689 4.319742 0.291103
v -0.962941 4.165365 0.894786
v -0.962941 4.319742 0.291103
v -1.414689 3.824011 -1.455294
v -0.962941 3.824011 -1.455294
v 1.414689 3.215901 1.797500
v -1.414689 3.215901 -1.797500
v -1.414689 4.319742 -0.291103
v -3.515299 3.940268 -0.799609
v -3.515299 3.152133 -1.554734
v -3.515299 3.940268 0.799605
v -3.515299 0.078870 1.557464
v -3.515299 3.152133 1.554734
v -3.515299 4.078233 -0.260669
v -3.515299 4.078233 0.260670
v 3.515299 3.940268 0.799605
v 3.515299 3.152133 1.554734
v 3.515299 3.940268 -0.799609
v 3.515299 0.078870 -1.557464
v 3.515299 3.152133 -1.554734
v 3.515299 4.078233 -0.260669
v 3.515299 4.078233 0.260670
v 2.830511 4.214736 0.915540
v -3.515299 3.649878 -1.274633
v -3.515299 3.649878 1.274633
v 3.515299 3.649878 1.274633
v 3.515299 3.649878 -1.274633
v 3.515299 0.078870 1.557464
v -3.515299 0.078870 -1.557464
v 0.325451 2.550394 -1.749051
v 0.383711 2.767830 -1.807329
v 0.383711 2.767830 -1.749051
v 0.166274 2.391218 -1.749051
v 0.325451 2.550394 -1.807329
v -0.051162 2.332954 -1.749051
v 0.166274 2.391218 -1.807329
v -0.268598 2.391218 -1.749051
v -0.051162 2.332954 -1.807329
v -0.427774 2.550394 -1.749051
v -0.268598 2.391218 -1.807329
v -0.486034 2.767830 -1.749051
v -0.427774 2.550394 -1.807329
v -0.427774 2.985266 -1.749051
v -0.486034 2.767830 -1.807329
v -0.268598 3.144442 -1.749051
v -0.427774 2.985266 -1.807329
v -0.051162 3.202702 -1.749051
v -0.268598 3.144442 -1.807329
v 0.166274 3.144442 -1.749051
v -0.051162 3.202702 -1.807329
v 0.325451 2.985266 -1.749051
v 0.166274 3.144442 -1.807329
v 0.325451 2.985266 -1.807329
vt 0.169396 0.810756
vt 0.291521 0.998409
vt 0.291523 0.810757
vt 0.423375 0.810758
vt 0.999807 0.998416
vt 0.999808 0.810764
vt 0.420667 0.810864
vt 0.999952 0.998858
vt 0.999955 0.810878
vt 0.171548 0.810857
vt 0.056323 0.998836
vt 0.171546 0.998838
vt -0.052140 0.810852
vt -0.168606 0.998832
vt -0.052142 0.998833
vt 0.291435 0.810860
vt 0.291433 0.998841
vt 0.423373 0.998410
vt 0.420665 0.998845
vt 0.056325 0.810855
vt -0.290735 0.810850
vt -0.290736 0.998831
vt -0.422592 0.998829
vt -0.999039 0.810843
vt -0.999040 0.998824
vt -0.419862 0.998395
vt -0.999132 0.810730
vt -0.999134 0.998381
vt -0.055530 0.998405
vt -0.170747 0.810749
vt -0.170749 0.998401
vt 0.169394 0.998407
vt 0.052934 0.810755
vt 0.052933 0.998406
vt -0.290632 0.810747
vt -0.290634 0.998398
vt -0.422590 0.810848
vt -0.419860 0.810744
vt -0.055528 0.810753
vt 1.483708 0.574998
vt 1.621728 0.490580
vt 1.483708 0.490579
vt 1.483708 0.399438
vt 1.621729 0.000987
vt 1.483709 0.000985
vt 1.483707 0.401487
vt 1.621731 0.001075
vt 1.483710 0.001073
vt 1.483705 0.653327
vt 1.621725 0.573686
vt 1.483705 0.573683
vt 1.207888 0.574995
vt 1.069868 0.655496
vt 1.207888 0.655497
vt 1.621726 0.490817
vt 1.483706 0.490815
vt 1.621728 0.399439
vt 1.621727 0.401489
vt 1.483704 0.667924
vt 1.621725 0.592953
vt 1.483705 0.592951
vt 1.069868 0.574994
vt 1.207888 0.490576
vt 1.069868 0.490575
vt 1.069868 0.399434
vt 1.207889 0.000983
vt 1.069869 0.000982
vt 1.069867 0.401480
vt 1.207891 0.001068
vt 1.069870 0.001066
vt 1.069865 0.653321
vt 1.207886 0.573679
vt 1.069866 0.573676
vt 1.621728 0.574999
vt 1.483708 0.655500
vt 1.621728 0.655501
vt 1.207886 0.490810
vt 1.069866 0.490808
vt 1.207889 0.399435
vt 1.207887 0.401482
vt 1.069864 0.667918
vt 1.207885 0.592946
vt 1.069865 0.592944
vt 1.251927 0.490577
vt 1.439669 0.574997
vt 1.439670 0.490579
vt 1.251927 0.000983
vt 1.439670 0.399437
vt 1.439670 0.000985
vt 1.251929 0.001069
vt 1.439669 0.401486
vt 1.439672 0.001072
vt 1.251924 0.573679
vt 1.439666 0.653327
vt 1.439667 0.573683
vt 1.439669 0.655500
vt 1.251927 0.574995
vt 1.251927 0.655498
vt 1.251925 0.490811
vt 1.439668 0.490814
vt 1.251927 0.399436
vt 1.251926 0.401483
vt 1.251923 0.592947
vt 1.439666 0.667924
vt 1.439666 0.592950
vt 0.354454 0.780390
vt 0.415498 0.687212
vt 0.354454 0.687211
vt 0.000424 0.780389
vt 0.288549 0.687211
vt 0.000424 0.687210
vt 0.999568 0.687500
vt 0.710040 0.780456
vt 0.999567 0.780463
vt 0.585531 0.687490
vt 0.527942 0.780451
vt 0.585530 0.780452
vt 0.473732 0.687487
vt 0.415523 0.780450
vt 0.473732 0.780450
vt 0.645451 0.687491
vt 0.645450 0.780454
vt 0.288549 0.780390
vt 0.710041 0.687493
vt 0.527943 0.687488
vt 0.354483 0.780450
vt 0.415523 0.687486
vt 0.354483 0.687486
vt 0.000473 0.780448
vt 0.288581 0.687486
vt 0.000473 0.687485
vt 0.999576 0.687225
vt 0.710032 0.780396
vt 0.999575 0.780404
vt 0.585515 0.687215
vt 0.527923 0.780392
vt 0.585515 0.780394
vt 0.473710 0.687212
vt 0.415498 0.780390
vt 0.473710 0.780391
vt 0.645438 0.687216
vt 0.645438 0.780394
vt 0.288581 0.780449
vt 0.710032 0.687218
vt 0.527924 0.687213
vt 1.251923 0.667920
vt 1.251923 0.653323
vt 1.207884 0.667920
vt 0.029498 0.126780
vt 0.164586 -0.005372
vt 0.029498 0.406652
vt 0.691354 0.539281
vt 0.164586 0.538804
vt 0.005850 0.221097
vt 0.005850 0.312335
vt 0.029498 0.406652
vt 0.164587 0.538804
vt 0.029498 0.126780
vt 0.691354 -0.005850
vt 0.164587 -0.005372
vt 0.005850 0.221097
vt 0.005850 0.312335
vt 1.621724 0.667927
vt -0.168605 0.810851
vt -0.419862 0.808129
vt -0.290634 0.808132
vt -0.170749 0.808135
vt -0.055530 0.808139
vt 0.169394 0.808141
vt 0.291521 0.808143
vt 0.423373 0.808144
vt -0.422592 0.808563
vt -0.290736 0.808564
vt -0.168606 0.808565
vt -0.052142 0.808567
vt 0.171546 0.808572
vt 0.291433 0.808575
vt 0.420665 0.808579
vt 0.999952 0.808592
vt -0.999040 0.808557
vt 0.999807 0.808150
vt -0.999134 0.808115
vt 0.830916 0.345011
vt 0.809822 0.334934
vt 0.830916 0.334934
vt 0.830916 0.355088
vt 0.809822 0.345011
vt 0.830916 0.365165
vt 0.809822 0.355088
vt 0.830916 0.254319
vt 0.809822 0.244243
vt 0.830916 0.244243
vt 0.830916 0.264396
vt 0.809822 0.254319
vt 0.830916 0.274473
vt 0.809822 0.264396
vt 0.830916 0.284550
vt 0.809822 0.274473
vt 0.830916 0.294627
vt 0.809822 0.284550
vt 0.830916 0.304704
vt 0.809822 0.294627
vt 0.830916 0.314781
vt 0.809822 0.304704
vt 0.830916 0.324857
vt 0.809822 0.314781
vt 0.809822 0.324857
vt 0.767396 0.089108
vt 0.728829 0.371380
vt 0.728829 0.164742
vt 0.872762 0.089108
vt 0.911328 0.371380
vt 0.820079 0.061423
vt 0.911328 0.164742
vt 0.925445 0.268061
vt 0.820079 0.474699
vt 0.767396 0.447014
vt 0.714713 0.268061
vt 1.621725 0.653330
vt 1.207885 0.653323
vt 0.079271 0.043647
vt 0.691354 -0.005850
vt 0.079271 0.489784
vt 0.079272 0.489784
vt 0.691354 0.539281
vt 0.079272 0.043647
vt 0.052933 0.808140
vt 0.056323 0.808570
vt 0.809822 0.365165
vt 0.872762 0.447014
vn 0.0000 0.9212 0.3891
vn 0.0000 0.6942 0.7198
vn 0.0000 0.2540 0.9672
vn 0.0000 0.0010 1.0000
vn 0.0000 0.2540 -0.9672
vn 0.0000 0.0010 -1.0000
vn 0.0000 0.9212 -0.3891
vn 0.0000 0.9922 -0.1250
vn 0.0000 0.9922 0.1250
vn 0.0000 0.6942 -0.7198
vn 0.0000 0.9219 0.3875
vn 0.0000 0.6953 0.7187
vn 0.0000 0.2535 0.9673
vn 0.0000 -0.0000 1.0000
vn 0.0000 0.2535 -0.9673
vn 0.0000 0.0000 -1.0000
vn 0.0000 0.9922 -0.1248
vn 0.0000 0.9219 -0.3875
vn 0.0000 0.9922 0.1248
vn 0.0000 0.6953 -0.7187
vn 0.0000 0.6948 0.7192
vn 0.0000 0.9216 0.3882
vn 0.0000 0.0004 1.0000
vn 0.0000 0.2537 0.9673
vn 0.0000 0.0004 -1.0000
vn 0.0000 0.2537 -0.9673
vn 0.0000 0.9216 -0.3882
vn 0.0000 0.9922 -0.1249
vn 0.0000 0.9922 0.1249
vn 0.0000 0.6948 -0.7192
vn -1.0000 0.0000 0.0000
vn 1.0000 0.0000 0.0000
vn 0.0000 -1.0000 0.0012
vn 0.0002 -1.0000 0.0011
vn 0.0002 -1.0000 0.0014
vn 0.0003 -1.0000 -0.0004
vn 0.0004 -1.0000 -0.0003
vn 0.0003 -1.0000 -0.0000
vn 0.0000 -1.0000 -0.0000
vn -0.0000 -1.0000 0.0005
vn -0.0000 -1.0000 -0.0004
vn -0.0000 -1.0000 -0.0010
vn -0.0000 -1.0000 -0.0012
vn -0.0002 -1.0000 -0.0011
vn -0.0001 -1.0000 -0.0006
vn -0.0003 -1.0000 0.0004
vn -0.0004 -1.0000 0.0003
vn -0.0003 -1.0000 0.0000
vn 0.0000 -1.0000 0.0001
vn 0.0000 -1.0000 0.0004
vn 0.8660 -0.5000 0.0000
vn 0.5000 -0.8660 0.0000
vn -0.5000 -0.8660 0.0000
vn -0.8660 -0.5000 0.0000
vn -0.8660 0.5000 0.0000
vn -0.5000 0.8660 0.0000
vn -0.0000 1.0000 0.0000
vn 0.5000 0.8660 0.0000
vn 0.8660 0.5000 0.0000
usemtl treasure_chest
s 1
f 1/1/1 2/2/2 3/3/2
f 4/4/3 5/5/4 6/6/4
f 7/7/5 8/8/6 9/9/6
f 10/10/7 11/11/8 12/12/7
f 13/13/9 14/14/1 15/15/9
f 16/16/10 12/12/7 17/17/10
f 4/4/3 2/2/2 18/18/3
f 7/7/5 17/17/10 19/19/5
f 20/20/8 15/15/9 11/11/8
f 14/14/1 21/21/2 22/22/2
f 23/23/3 24/24/4 25/25/4
f 26/26/5 27/27/6 28/28/6
f 29/29/8 30/30/7 31/31/7
f 32/32/1 33/33/9 34/34/9
f 31/31/7 35/35/10 36/36/10
f 22/22/2 37/37/3 23/23/3
f 36/36/10 38/38/5 26/26/5
f 34/34/9 39/39/8 29/29/8
f 40/40/11 41/41/12 42/42/12
f 43/43/13 44/44/14 45/45/14
f 46/46/15 47/47/16 48/48/16
f 49/49/17 50/50/18 51/51/18
f 52/52/11 53/53/19 54/54/19
f 51/51/18 55/55/20 56/56/20
f 42/42/12 57/57/13 43/43/13
f 56/56/20 58/58/15 46/46/15
f 54/59/19 59/60/17 49/61/17
f 60/62/11 61/63/12 62/64/12
f 63/65/13 64/66/14 65/67/14
f 66/68/15 67/69/16 68/70/16
f 69/71/17 70/72/18 71/73/18
f 72/74/11 73/75/19 74/76/19
f 71/73/18 75/77/20 76/78/20
f 62/64/12 77/79/13 63/65/13
f 76/78/20 78/80/15 66/68/15
f 74/81/19 79/82/17 69/83/17
f 80/84/12 81/85/11 82/86/12
f 83/87/14 84/88/13 85/89/14
f 86/90/16 87/91/15 88/92/16
f 89/93/18 90/94/17 91/95/18
f 92/96/19 93/97/11 94/98/19
f 95/99/20 91/95/18 96/100/20
f 97/101/13 82/86/12 84/88/13
f 98/102/15 96/100/20 87/91/15
f 99/103/17 94/104/19 90/105/17
f 100/106/21 101/107/22 102/108/21
f 103/109/23 104/110/24 105/111/23
f 106/112/25 107/113/26 108/114/25
f 109/115/27 110/116/28 111/117/27
f 112/118/29 113/119/22 114/120/29
f 115/121/30 111/117/27 116/122/30
f 117/123/24 102/108/21 104/110/24
f 118/124/26 116/122/30 107/113/26
f 119/125/28 114/120/29 110/116/28
f 120/126/21 121/127/22 122/128/21
f 123/129/23 124/130/24 125/131/23
f 126/132/25 127/133/26 128/134/25
f 129/135/27 130/136/28 131/137/27
f 132/138/29 133/139/22 134/140/29
f 135/141/30 131/137/27 136/142/30
f 137/143/24 122/128/21 124/130/24
f 138/144/26 136/142/30 127/133/26
f 139/145/28 134/140/29 130/136/28
f 42/42/31 101/107/31 40/40/31
f 43/43/31 102/108/31 42/42/31
f 43/43/31 105/111/31 104/110/31
f 84/88/32 103/109/32 85/89/32
f 84/88/32 100/106/32 117/123/32
f 82/86/32 133/139/32 100/106/32
f 81/85/32 134/140/32 133/139/32
f 99/103/32 134/140/32 92/146/32
f 89/93/32 130/136/32 99/147/32
f 95/99/32 131/137/32 89/93/32
f 98/102/32 136/142/32 95/99/32
f 98/102/32 128/134/32 127/133/32
f 78/80/31 126/132/31 67/69/31
f 78/80/31 135/141/31 138/144/31
f 75/77/31 129/135/31 135/141/31
f 70/72/31 139/145/31 129/135/31
f 73/148/31 139/145/31 79/82/31
f 40/40/31 132/138/31 73/75/31
f 46/46/32 108/114/32 107/113/32
f 87/91/31 106/112/31 88/92/31
f 87/91/31 115/121/31 118/124/31
f 96/100/31 109/115/31 115/121/31
f 91/95/31 119/125/31 109/115/31
f 94/104/31 119/125/31 90/105/31
f 93/97/31 112/118/31 94/98/31
f 80/84/31 121/127/31 93/97/31
f 97/101/31 122/128/31 80/84/31
f 97/101/31 125/131/31 124/130/31
f 77/79/32 123/129/32 64/66/32
f 77/79/32 120/126/32 137/143/32
f 61/63/32 113/119/32 120/126/32
f 52/52/32 114/120/32 113/119/32
f 49/61/32 114/120/32 54/59/32
f 51/51/32 110/116/32 49/49/32
f 56/56/32 111/117/32 51/51/32
f 46/46/32 116/122/32 56/56/32
f 140/149/31 141/150/31 142/151/31
f 141/150/31 143/152/31 142/151/31
f 144/153/31 142/151/31 143/152/31
f 145/154/31 142/151/31 146/155/31
f 57/57/32 6/6/32 44/44/32
f 41/41/32 4/4/32 57/57/32
f 41/41/32 1/1/32 3/3/32
f 72/74/32 33/33/32 1/1/32
f 69/83/32 33/33/32 74/81/32
f 71/73/32 39/39/32 69/71/32
f 76/78/32 30/30/32 71/73/32
f 66/68/32 35/35/32 76/78/32
f 66/68/32 27/27/32 38/38/32
f 147/156/32 148/157/32 149/158/32
f 148/157/32 150/159/32 149/158/32
f 151/160/32 149/158/32 150/159/32
f 147/156/32 152/161/32 153/162/32
f 58/58/31 9/9/31 47/47/31
f 58/58/31 16/16/31 7/7/31
f 55/55/31 10/10/31 16/16/31
f 50/50/31 20/20/31 10/10/31
f 53/163/31 20/20/31 59/60/31
f 60/62/31 13/13/31 53/53/31
f 62/64/31 154/164/31 60/62/31
f 62/64/31 37/37/31 21/21/31
f 63/65/31 24/24/31 37/37/31
f 28/28/31 141/165/31 26/26/31
f 141/165/31 36/36/31 26/26/31
f 155/166/31 31/31/31 36/36/31
f 140/167/31 29/29/31 31/31/31
f 145/168/31 34/34/31 29/29/31
f 34/34/31 142/169/31 32/32/31
f 32/32/31 156/170/31 2/2/31
f 2/2/31 144/171/31 18/18/31
f 144/171/31 5/5/31 18/18/31
f 25/25/32 148/172/32 23/23/32
f 148/172/32 22/22/32 23/23/32
f 157/173/32 14/14/32 22/22/32
f 147/174/32 15/15/32 14/14/32
f 153/175/32 11/11/32 15/15/32
f 11/11/32 149/176/32 12/12/32
f 12/12/32 158/177/32 17/17/32
f 17/17/32 151/178/32 19/19/32
f 151/178/32 8/8/32 19/19/32
f 47/47/33 8/8/34 150/179/35
f 159/180/36 24/24/37 150/179/35
f 150/179/35 65/67/38 64/66/39
f 123/129/39 83/87/39 64/66/39
f 64/66/39 86/90/40 150/179/35
f 103/109/39 45/45/41 85/89/42
f 44/44/43 5/5/44 143/181/45
f 45/45/41 143/181/45 85/89/42
f 85/89/42 86/90/40 83/87/39
f 160/182/46 27/27/47 143/181/45
f 143/181/45 68/70/48 67/69/49
f 126/132/39 86/90/40 67/69/49
f 143/181/45 67/69/49 86/90/40
f 150/179/35 88/92/50 48/48/33
f 106/112/39 48/48/33 88/92/50
f 47/47/33 150/179/35 48/48/33
f 161/183/51 162/184/32 163/185/32
f 164/186/52 165/187/51 161/183/51
f 166/188/39 167/189/52 164/186/52
f 168/190/53 169/191/39 166/192/39
f 170/193/54 171/194/53 168/190/53
f 172/195/31 173/196/54 170/193/54
f 174/197/55 175/198/31 172/195/31
f 176/199/56 177/200/55 174/197/55
f 178/201/57 179/202/56 176/199/56
f 180/203/58 181/204/57 178/201/57
f 182/205/59 183/206/58 180/203/58
f 163/185/32 184/207/59 182/205/59
f 167/208/16 184/209/16 165/210/16
f 171/211/16 177/212/16 169/213/16
f 173/214/16 175/215/16 177/212/16
f 177/212/16 181/216/16 184/209/16
f 181/216/16 183/217/16 184/209/16
f 169/213/16 177/212/16 184/209/16
f 162/218/16 165/210/16 184/209/16
f 1/1/1 32/32/1 2/2/2
f 4/4/3 18/18/3 5/5/4
f 7/7/5 19/19/5 8/8/6
f 10/10/7 20/20/8 11/11/8
f 13/13/9 154/164/1 14/14/1
f 16/16/10 10/10/7 12/12/7
f 4/4/3 3/3/2 2/2/2
f 7/7/5 16/16/10 17/17/10
f 20/20/8 13/13/9 15/15/9
f 14/14/1 154/164/1 21/21/2
f 23/23/3 37/37/3 24/24/4
f 26/26/5 38/38/5 27/27/6
f 29/29/8 39/39/8 30/30/7
f 32/32/1 1/1/1 33/33/9
f 31/31/7 30/30/7 35/35/10
f 22/22/2 21/21/2 37/37/3
f 36/36/10 35/35/10 38/38/5
f 34/34/9 33/33/9 39/39/8
f 40/40/11 72/74/11 41/41/12
f 43/43/13 57/57/13 44/44/14
f 46/46/15 58/58/15 47/47/16
f 49/49/17 59/219/17 50/50/18
f 52/52/11 60/62/11 53/53/19
f 51/51/18 50/50/18 55/55/20
f 42/42/12 41/41/12 57/57/13
f 56/56/20 55/55/20 58/58/15
f 54/59/19 53/163/19 59/60/17
f 60/62/11 52/52/11 61/63/12
f 63/65/13 77/79/13 64/66/14
f 66/68/15 78/80/15 67/69/16
f 69/71/17 79/220/17 70/72/18
f 72/74/11 40/40/11 73/75/19
f 71/73/18 70/72/18 75/77/20
f 62/64/12 61/63/12 77/79/13
f 76/78/20 75/77/20 78/80/15
f 74/81/19 73/148/19 79/82/17
f 80/84/12 93/97/11 81/85/11
f 83/87/14 97/101/13 84/88/13
f 86/90/16 98/102/15 87/91/15
f 89/93/18 99/147/17 90/94/17
f 92/96/19 81/85/11 93/97/11
f 95/99/20 89/93/18 91/95/18
f 97/101/13 80/84/12 82/86/12
f 98/102/15 95/99/20 96/100/20
f 99/103/17 92/146/19 94/104/19
f 100/106/21 133/139/22 101/107/22
f 103/109/23 117/123/24 104/110/24
f 106/112/25 118/124/26 107/113/26
f 109/115/27 119/125/28 110/116/28
f 112/118/29 121/127/22 113/119/22
f 115/121/30 109/115/27 111/117/27
f 117/123/24 100/106/21 102/108/21
f 118/124/26 115/121/30 116/122/30
f 119/125/28 112/118/29 114/120/29
f 120/126/21 113/119/22 121/127/22
f 123/129/23 137/143/24 124/130/24
f 126/132/25 138/144/26 127/133/26
f 129/135/27 139/145/28 130/136/28
f 132/138/29 101/107/22 133/139/22
f 135/141/30 129/135/27 131/137/27
f 137/143/24 120/126/21 122/128/21
f 138/144/26 135/141/30 136/142/30
f 139/145/28 132/138/29 134/140/29
f 42/42/31 102/108/31 101/107/31
f 43/43/31 104/110/31 102/108/31
f 43/43/31 45/45/31 105/111/31
f 84/88/32 117/123/32 103/109/32
f 84/88/32 82/86/32 100/106/32
f 82/86/32 81/85/32 133/139/32
f 81/85/32 92/96/32 134/140/32
f 99/103/32 130/136/32 134/140/32
f 89/93/32 131/137/32 130/136/32
f 95/99/32 136/142/32 131/137/32
f 98/102/32 127/133/32 136/142/32
f 98/102/32 86/90/32 128/134/32
f 78/80/31 138/144/31 126/132/31
f 78/80/31 75/77/31 135/141/31
f 75/77/31 70/72/31 129/135/31
f 70/72/31 79/220/31 139/145/31
f 73/148/31 132/138/31 139/145/31
f 40/40/31 101/107/31 132/138/31
f 46/46/32 48/48/32 108/114/32
f 87/91/31 118/124/31 106/112/31
f 87/91/31 96/100/31 115/121/31
f 96/100/31 91/95/31 109/115/31
f 91/95/31 90/94/31 119/125/31
f 94/104/31 112/118/31 119/125/31
f 93/97/31 121/127/31 112/118/31
f 80/84/31 122/128/31 121/127/31
f 97/101/31 124/130/31 122/128/31
f 97/101/31 83/87/31 125/131/31
f 77/79/32 137/143/32 123/129/32
f 77/79/32 61/63/32 120/126/32
f 61/63/32 52/52/32 113/119/32
f 52/52/32 54/54/32 114/120/32
f 49/61/32 110/116/32 114/120/32
f 51/51/32 111/117/32 110/116/32
f 56/56/32 116/122/32 111/117/32
f 46/46/32 107/113/32 116/122/32
f 140/149/31 155/221/31 141/150/31
f 141/150/31 160/222/31 143/152/31
f 144/153/31 156/223/31 142/151/31
f 145/154/31 140/149/31 142/151/31
f 57/57/32 4/4/32 6/6/32
f 41/41/32 3/3/32 4/4/32
f 41/41/32 72/74/32 1/1/32
f 72/74/32 74/76/32 33/33/32
f 69/83/32 39/39/32 33/33/32
f 71/73/32 30/30/32 39/39/32
f 76/78/32 35/35/32 30/30/32
f 66/68/32 38/38/32 35/35/32
f 66/68/32 68/70/32 27/27/32
f 147/156/32 157/224/32 148/157/32
f 148/157/32 159/225/32 150/159/32
f 151/160/32 158/226/32 149/158/32
f 147/156/32 149/158/32 152/161/32
f 58/58/31 7/7/31 9/9/31
f 58/58/31 55/55/31 16/16/31
f 55/55/31 50/50/31 10/10/31
f 50/50/31 59/219/31 20/20/31
f 53/163/31 13/13/31 20/20/31
f 60/62/31 154/164/31 13/13/31
f 62/64/31 21/21/31 154/164/31
f 62/64/31 63/65/31 37/37/31
f 63/65/31 65/67/31 24/24/31
f 28/28/31 160/182/31 141/165/31
f 141/165/31 155/166/31 36/36/31
f 155/166/31 140/167/31 31/31/31
f 140/167/31 145/168/31 29/29/31
f 145/168/31 146/227/31 34/34/31
f 34/34/31 146/227/31 142/169/31
f 32/32/31 142/169/31 156/170/31
f 2/2/31 156/170/31 144/171/31
f 144/171/31 143/181/31 5/5/31
f 25/25/32 159/180/32 148/172/32
f 148/172/32 157/173/32 22/22/32
f 157/173/32 147/174/32 14/14/32
f 147/174/32 153/175/32 15/15/32
f 153/175/32 152/228/32 11/11/32
f 11/11/32 152/228/32 149/176/32
f 12/12/32 149/176/32 158/177/32
f 17/17/32 158/177/32 151/178/32
f 151/178/32 150/179/32 8/8/32
f 47/47/33 9/9/39 8/8/34
f 159/180/36 25/25/43 24/24/37
f 150/179/35 24/24/37 65/67/38
f 123/129/39 125/131/39 83/87/39
f 64/66/39 83/87/39 86/90/40
f 103/109/39 105/111/39 45/45/41
f 44/44/43 6/6/39 5/5/44
f 45/45/41 44/44/43 143/181/45
f 85/89/42 143/181/45 86/90/40
f 160/182/46 28/28/33 27/27/47
f 143/181/45 27/27/47 68/70/48
f 126/132/39 128/134/39 86/90/40
f 150/179/35 86/90/40 88/92/50
f 106/112/39 108/114/39 48/48/33
f 161/183/51 165/187/51 162/184/32
f 164/186/52 167/189/52 165/187/51
f 166/188/39 169/229/39 167/189/52
f 168/190/53 171/194/53 169/191/39
f 170/193/54 173/196/54 171/194/53
f 172/195/31 175/198/31 173/196/54
f 174/197/55 177/200/55 175/198/31
f 176/199/56 179/202/56 177/200/55
f 178/201/57 181/204/57 179/202/56
f 180/203/58 183/206/58 181/204/57
f 182/205/59 184/207/59 183/206/58
f 163/185/32 162/184/32 184/207/59
f 167/208/16 169/213/16 184/209/16
f 171/211/16 173/214/16 177/212/16
f 177/212/16 179/230/16 181/216/16
